<svg width="263" height="54" viewBox="0 0 263 54" fill="none" xmlns="http://www.w3.org/2000/svg">
<path d="M87.5999 33.2289C87.5973 36.3659 86.3562 39.3751 84.1464 41.6018C81.9365 43.8285 78.9368 45.0925 75.7999 45.1188C73.0967 45.1377 70.4847 44.1422 68.4799 42.3289V44.6888H63.3799V9.04883H68.4799V24.1288C70.5007 22.3466 73.1054 21.368 75.7999 21.3788C78.9332 21.3947 81.9329 22.6498 84.1439 24.8701C86.3548 27.0905 87.5973 30.0955 87.5999 33.2289ZM82.3998 33.2289C82.384 31.8449 81.9582 30.4968 81.1763 29.3548C80.3945 28.2128 79.2917 27.3281 78.0072 26.8127C76.7227 26.2973 75.3144 26.1742 73.96 26.459C72.6056 26.7438 71.366 27.4237 70.3979 28.4127C69.4298 29.4018 68.7765 30.6556 68.5208 32.0158C68.2651 33.376 68.4183 34.7814 68.9611 36.0546C69.5039 37.3277 70.4119 38.4113 71.5704 39.1685C72.7289 39.9258 74.0859 40.3226 75.4698 40.3088C77.3212 40.2799 79.0856 39.5186 80.377 38.1917C81.6683 36.8648 82.3813 35.0803 82.3599 33.2289H82.3998Z" fill="#0000FF"/>
<path d="M113.13 21.809V44.689H108.03V42.329C106.025 44.1423 103.413 45.1379 100.71 45.119C97.5617 45.119 94.5425 43.8684 92.3165 41.6424C90.0904 39.4163 88.8398 36.3971 88.8398 33.249C88.8398 30.1009 90.0904 27.0817 92.3165 24.8556C94.5425 22.6296 97.5617 21.379 100.71 21.379C103.404 21.3682 106.009 22.3467 108.03 24.129V21.809H113.13ZM108.03 33.229C108.014 31.848 107.59 30.5026 106.811 29.362C106.033 28.2215 104.934 27.3367 103.654 26.8191C102.373 26.3016 100.968 26.1743 99.6158 26.4534C98.2633 26.7325 97.0235 27.4054 96.0525 28.3874C95.0815 29.3695 94.4227 30.6169 94.1591 31.9725C93.8954 33.3281 94.0386 34.7315 94.5707 36.0059C95.1028 37.2803 95.9999 38.3689 97.1493 39.1346C98.2986 39.9003 99.6488 40.3089 101.03 40.309C101.956 40.309 102.873 40.1254 103.727 39.7686C104.582 39.4118 105.357 38.889 106.008 38.2305C106.659 37.572 107.173 36.7909 107.52 35.9323C107.867 35.0738 108.04 34.155 108.03 33.229Z" fill="#0000FF"/>
<path d="M124.02 40.6493C126.47 40.6493 127.43 39.5393 127.43 38.4293C127.43 34.2393 115.83 36.6993 115.83 28.4293C115.83 24.4293 118.72 21.4293 123.83 21.4293C126.917 21.2994 129.946 22.2903 132.36 24.2193L129.66 27.8793C127.954 26.6838 125.913 26.0606 123.83 26.0993C121.57 26.0993 120.83 26.9693 120.83 28.0293C120.83 31.9793 132.29 30.0293 132.29 38.2893C132.29 42.2893 129.29 45.2893 123.67 45.2893C120.415 45.3288 117.254 44.2006 114.76 42.1093L117.45 38.2093C119.286 39.7678 121.611 40.6315 124.02 40.6493Z" fill="#0000FF"/>
<path d="M133.739 33.3188C133.708 30.9163 134.391 28.5586 135.703 26.5458C137.015 24.5329 138.897 22.9559 141.108 22.0153C143.319 21.0747 145.76 20.8131 148.12 21.2637C150.48 21.7144 152.652 22.857 154.361 24.5461C156.07 26.2351 157.238 28.3944 157.716 30.7491C158.194 33.1038 157.961 35.5475 157.046 37.7693C156.132 39.9911 154.576 41.8906 152.579 43.2261C150.582 44.5615 148.232 45.2726 145.829 45.2688C144.25 45.2807 142.684 44.9807 141.221 44.3861C139.758 43.7915 138.427 42.9139 137.303 41.8037C136.18 40.6935 135.287 39.3725 134.676 37.9165C134.064 36.4605 133.746 34.8981 133.739 33.3188ZM152.739 33.3188C152.706 31.9608 152.273 30.6427 151.494 29.5293C150.716 28.416 149.627 27.5568 148.363 27.0592C147.099 26.5615 145.716 26.4475 144.387 26.7314C143.059 27.0153 141.844 27.6845 140.893 28.6554C139.943 29.6262 139.3 30.8556 139.045 32.1898C138.789 33.5241 138.933 34.904 139.457 36.1572C139.982 37.4103 140.864 38.481 141.994 39.2354C143.124 39.9898 144.451 40.3945 145.809 40.3988C146.734 40.4031 147.651 40.2219 148.504 39.866C149.358 39.51 150.132 38.9866 150.779 38.3265C151.427 37.6665 151.936 36.8833 152.277 36.0231C152.617 35.163 152.781 34.2435 152.759 33.3188H152.739Z" fill="#0000FF"/>
<path d="M185.13 33.2289C185.125 36.3651 183.883 39.3728 181.674 41.5989C179.465 43.825 176.467 45.0899 173.33 45.1188C170.627 45.1387 168.015 44.143 166.01 42.3289V44.6888H160.9V9.04883H166.01V24.1288C168.031 22.3466 170.636 21.368 173.33 21.3788C176.464 21.3947 179.463 22.6498 181.674 24.8701C183.885 27.0905 185.128 30.0955 185.13 33.2289ZM179.92 33.2289C179.905 31.8449 179.479 30.4968 178.697 29.3548C177.915 28.2128 176.812 27.3281 175.528 26.8127C174.243 26.2973 172.835 26.1742 171.48 26.459C170.126 26.7438 168.887 27.4237 167.918 28.4127C166.95 29.4018 166.297 30.6556 166.041 32.0158C165.786 33.376 165.939 34.7814 166.482 36.0546C167.024 37.3277 167.933 38.4113 169.091 39.1685C170.249 39.9258 171.606 40.3226 172.99 40.3088C173.911 40.2997 174.82 40.1092 175.666 39.7484C176.513 39.3875 177.28 38.8632 177.923 38.2057C178.567 37.5481 179.075 36.7701 179.417 35.9161C179.76 35.0621 179.931 34.149 179.92 33.2289Z" fill="#0000FF"/>
<path d="M210.7 21.809V44.689H205.6V42.329C203.595 44.1423 200.983 45.1379 198.28 45.119C195.132 45.119 192.113 43.8684 189.887 41.6424C187.661 39.4163 186.41 36.3971 186.41 33.249C186.41 30.1009 187.661 27.0817 189.887 24.8556C192.113 22.6296 195.132 21.379 198.28 21.379C200.975 21.3682 203.579 22.3467 205.6 24.129V21.809H210.7ZM205.6 33.229C205.584 31.848 205.16 30.5026 204.382 29.362C203.603 28.2215 202.504 27.3367 201.224 26.8191C199.944 26.3016 198.539 26.1743 197.186 26.4534C195.834 26.7325 194.594 27.4054 193.623 28.3874C192.652 29.3695 191.993 30.6169 191.729 31.9725C191.466 33.3281 191.609 34.7315 192.141 36.0059C192.673 37.2803 193.57 38.3689 194.72 39.1346C195.869 39.9003 197.219 40.3089 198.6 40.309C199.526 40.309 200.443 40.1254 201.298 39.7686C202.152 39.4118 202.927 38.889 203.578 38.2305C204.229 37.572 204.743 36.7909 205.09 35.9323C205.437 35.0738 205.611 34.155 205.6 33.229Z" fill="#0000FF"/>
<path d="M236.89 21.809V44.689H231.79V42.329C229.785 44.1423 227.173 45.1379 224.47 45.119C221.321 45.119 218.302 43.8684 216.076 41.6424C213.85 39.4163 212.6 36.3971 212.6 33.249C212.6 30.1009 213.85 27.0817 216.076 24.8556C218.302 22.6296 221.321 21.379 224.47 21.379C227.164 21.3682 229.769 22.3467 231.79 24.129V21.809H236.89ZM231.79 33.229C231.774 31.848 231.35 30.5026 230.571 29.362C229.793 28.2215 228.694 27.3367 227.413 26.8191C226.133 26.3016 224.728 26.1743 223.376 26.4534C222.023 26.7325 220.783 27.4054 219.812 28.3874C218.841 29.3695 218.182 30.6169 217.919 31.9725C217.655 33.3281 217.798 34.7315 218.33 36.0059C218.863 37.2803 219.76 38.3689 220.909 39.1346C222.058 39.9003 223.409 40.3089 224.79 40.309C225.716 40.309 226.632 40.1254 227.487 39.7686C228.342 39.4118 229.117 38.889 229.768 38.2305C230.419 37.572 230.933 36.7909 231.28 35.9323C231.627 35.0738 231.8 34.155 231.79 33.229Z" fill="#0000FF"/>
<path d="M247.769 40.6493C250.229 40.6493 251.189 39.5393 251.189 38.4293C251.189 34.2393 239.589 36.6993 239.589 28.4293C239.589 24.4293 242.479 21.4293 247.589 21.4293C250.676 21.2994 253.706 22.2903 256.119 24.2193L253.419 27.8793C251.713 26.6851 249.672 26.062 247.589 26.0993C245.329 26.0993 244.589 26.9693 244.589 28.0293C244.589 31.9793 256.059 30.0293 256.059 38.2893C256.059 42.2893 253.059 45.2893 247.439 45.2893C244.184 45.3306 241.023 44.2022 238.529 42.1093L241.219 38.2093C243.05 39.7642 245.368 40.6277 247.769 40.6493Z" fill="#0000FF"/>
<path d="M262.66 42.148C262.658 42.6677 262.502 43.1752 262.212 43.6064C261.922 44.0376 261.511 44.3731 261.03 44.5706C260.549 44.7681 260.021 44.8188 259.511 44.7162C259.002 44.6136 258.534 44.3623 258.167 43.9941C257.8 43.6259 257.551 43.1573 257.45 42.6474C257.35 42.1375 257.402 41.6092 257.602 41.1292C257.801 40.6492 258.138 40.2391 258.57 39.9505C259.003 39.662 259.511 39.508 260.03 39.508C260.378 39.5039 260.722 39.5695 261.044 39.7009C261.365 39.8323 261.657 40.0267 261.903 40.2728C262.148 40.5189 262.341 40.8117 262.471 41.1337C262.601 41.4558 262.666 41.8007 262.66 42.148ZM262.03 42.148C262.03 41.7524 261.913 41.3658 261.693 41.0369C261.474 40.708 261.161 40.4516 260.796 40.3002C260.43 40.1489 260.028 40.1092 259.64 40.1864C259.252 40.2636 258.896 40.4541 258.616 40.7338C258.336 41.0135 258.146 41.3698 258.069 41.7578C257.992 42.1458 258.031 42.5479 258.183 42.9133C258.334 43.2788 258.59 43.5911 258.919 43.8109C259.248 44.0307 259.635 44.148 260.03 44.148C260.559 44.148 261.066 43.9386 261.441 43.5657C261.816 43.1928 262.028 42.6867 262.03 42.158V42.148ZM260.65 42.418L261.24 43.478H260.51L260 42.478H259.74V43.478H259.04V40.728H260.15C260.81 40.728 261.15 41.078 261.15 41.608C261.164 41.7799 261.123 41.9516 261.033 42.0988C260.943 42.246 260.809 42.3612 260.65 42.428V42.418ZM259.74 41.938H260.11C260.34 41.938 260.46 41.828 260.46 41.638C260.46 41.448 260.34 41.338 260.11 41.338H259.74V41.938Z" fill="#0000FF"/>
<path d="M27 0L0 18V45H36V54L54 45V18L27 0ZM48.9 41.85L41.11 45.75V39.9H5.10999V20.78L27 6.17999L48.9 20.78V41.85Z" fill="#0000FF"/>
<path d="M0 18.0391L9 9.03906V3.03906H0V18.0391Z" fill="#0000FF"/>
</svg>
